<svg fill="none" height="23" viewBox="0 0 21 23" width="21" xmlns="http://www.w3.org/2000/svg"><g stroke="#fa811b" stroke-linecap="round" stroke-linejoin="round" stroke-miterlimit="10" stroke-width="2"><path d="m16 1h-11v9.8h11z"/><path d="m20 15.9c0 .6-.6 1.1-1.2 1.1h-16.6c-.6 0-1.2-.5-1.2-1.1v-10.19999c0-.6.6-1.1 1.2-1.1h16.5c.7 0 1.2.5 1.2 1.1v10.19999z" fill="#fff"/><path d="m16 13h-11v7h11z" fill="#fff"/><path d="m3.5 13h14"/></g><path d="m16.6 8.49999c.4418 0 .8-.35817.8-.8 0-.44182-.3582-.8-.8-.8s-.8.35818-.8.8c0 .44183.3582.8.8.8z" fill="#ff9600"/></svg>